<?xml version="1.0" encoding="iso-8859-1"?>
<!-- Uploaded to: SVG Repo, www.svgrepo.com, Generator: SVG Repo Mixer Tools -->
<svg height="800px" width="800px" version="1.1" id="Layer_1" xmlns="http://www.w3.org/2000/svg" xmlns:xlink="http://www.w3.org/1999/xlink" 
	 viewBox="0 0 511.999 511.999" xml:space="preserve">
<path style="fill:#CCD8E5;" d="M503.666,66.8v316.343c0,17.909-14.509,32.429-32.418,32.429H40.755
	c-17.909,0-32.418-14.52-32.418-32.429V66.8c0-17.909,14.509-32.429,32.418-32.429h430.493
	C489.157,34.371,503.666,48.891,503.666,66.8z"/>
<path style="fill:#DFEAF4;" d="M503.666,66.8v316.343c0,17.909-14.509,32.429-32.418,32.429H183.346l23.752-57.925L339.656,34.371
	h131.592C489.157,34.371,503.666,48.891,503.666,66.8z"/>
<path style="fill:#B8E9F2;" d="M503.666,66.8v290.847H8.338V66.8c0-17.909,14.509-32.429,32.418-32.429h430.493
	C489.157,34.371,503.666,48.891,503.666,66.8z"/>
<path style="fill:#D4F7FC;" d="M503.666,66.8v290.847H207.098L339.656,34.371h131.592C489.157,34.371,503.666,48.891,503.666,66.8z"
	/>
<polygon style="fill:#CCD8E5;" points="343.456,480.173 168.548,480.173 181.035,450.955 196.166,415.571 315.837,415.571 
	330.969,450.955 "/>
<polygon style="fill:#BAC6D1;" points="330.969,450.955 181.035,450.955 196.166,415.571 315.837,415.571 "/>
<g>
	<path style="fill:#6C767F;" d="M363.144,157.364l-86.787,31.373l-32.062,11.598l-95.442-42.972l13.154-47.738
		c5.455-19.83,25.963-31.473,45.782-25.996l37.906,10.454c6.732,1.855,13.854,1.778,20.553-0.222l37.206-11.121
		c5.644-1.689,11.376-1.966,16.809-1.055c13.898,2.333,25.885,12.498,29.796,27.041L363.144,157.364z"/>
	<path style="fill:#6C767F;" d="M408.993,210.957c-48.115,5.655-96.73,8.621-145.39,8.899
		c-53.714,0.311-107.473-2.655-160.588-8.899c16.353-17.597,31.64-35.473,45.838-53.592c45.96,4.155,92.32,5.633,138.569,4.41
		c25.307-0.667,50.57-2.133,75.722-4.41C377.342,175.484,392.628,193.359,408.993,210.957z"/>
	<path style="fill:#6C767F;" d="M191.625,299.713l-32.405-3.104c-11.358-1.088-19.684-11.177-18.596-22.536l2.866-29.919
		l92.555,8.865l-1.044,10.901C232.908,285.782,213.488,301.807,191.625,299.713z"/>
	<path style="fill:#6C767F;" d="M320.377,299.713l32.405-3.104c11.358-1.088,19.684-11.177,18.596-22.536l-2.866-29.919
		l-92.555,8.865l1.044,10.901C279.094,285.782,298.514,301.807,320.377,299.713z"/>
</g>
<path d="M378.502,259.788c-1.374-14.337-14.166-24.883-28.491-23.509l-74.453,7.131h-39.114l-74.452-7.131
	c-14.342-1.373-27.116,9.174-28.491,23.51l-1.17,12.213c-0.739,7.709,1.569,15.243,6.498,21.217
	c4.929,5.972,11.888,9.67,19.598,10.407l32.405,3.104c1.563,0.15,3.123,0.224,4.673,0.224c11.133,0,21.828-3.827,30.527-11.004
	c9.91-8.177,16.041-19.724,17.266-32.513l0.322-3.363h24.765l0.322,3.363c1.225,12.789,7.357,24.335,17.266,32.512
	c8.699,7.178,19.392,11.005,30.527,11.004c1.55,0,3.111-0.074,4.673-0.224l32.405-3.104c7.709-0.739,14.669-4.435,19.598-10.407
	c4.929-5.974,7.237-13.508,6.498-21.217L378.502,259.788z M226.708,261.849c-0.801,8.358-4.808,15.903-11.284,21.248
	c-6.476,5.344-14.632,7.848-23.004,7.046l-32.405-3.104c-3.277-0.314-6.237-1.885-8.332-4.425c-2.096-2.54-3.077-5.744-2.763-9.022
	l1.17-12.212c0.498-5.19,5.129-9.009,10.314-8.511l66.555,6.376L226.708,261.849z M360.32,282.613
	c-2.095,2.54-5.055,4.112-8.332,4.425l-32.405,3.104c-8.362,0.8-16.528-1.701-23.004-7.046c-6.476-5.344-10.484-12.89-11.284-21.247
	l-0.25-2.606l66.555-6.376c5.205-0.495,9.816,3.322,10.314,8.51l1.17,12.214C363.396,276.869,362.416,280.073,360.32,282.613z"/>
<path d="M415.092,204.011c-15.687-16.878-30.594-34.283-44.346-51.752l-12.645-46.97c-3.224-11.978-10.966-21.902-21.8-27.944
	c-10.833-6.042-23.348-7.413-35.23-3.862l-37.208,11.121c-5.204,1.554-10.721,1.613-15.954,0.169l-37.906-10.456
	c-11.731-3.236-24.022-1.709-34.607,4.3c-10.583,6.01-18.192,15.782-21.424,27.517l-12.698,46.104
	c-13.749,17.47-28.662,34.882-44.361,51.772c-2.137,2.299-2.801,5.604-1.718,8.549c1.084,2.946,3.731,5.033,6.848,5.398
	c51.08,6,102.52,9,153.96,9s102.879-3,153.96-9c3.117-0.367,5.764-2.453,6.848-5.398
	C417.893,209.615,417.229,206.311,415.092,204.011z M120.196,203.21c11.318-12.645,22.173-25.513,32.413-38.428
	c50.163,4.345,101.148,5.52,151.621,3.493c4.598-0.184,8.176-4.062,7.991-8.66c-0.18-4.485-3.872-7.998-8.32-7.998
	c-0.112,0-0.226,0.002-0.34,0.007c-47.927,1.925-96.325,0.92-144.015-2.983l10.488-38.082c2.051-7.442,6.875-13.639,13.587-17.451
	c6.712-3.811,14.507-4.779,21.948-2.727l37.904,10.456c8.255,2.277,16.953,2.185,25.159-0.267l37.208-11.121
	c7.538-2.253,15.473-1.382,22.342,2.449c6.871,3.832,11.781,10.125,13.825,17.721l10.503,39.013
	c-8.208,0.672-16.464,1.265-24.654,1.764c-4.594,0.279-8.09,4.229-7.811,8.822c0.28,4.594,4.252,8.094,8.822,7.811
	c10.145-0.617,20.391-1.372,30.524-2.25c10.243,12.918,21.097,25.787,32.413,38.428C301.606,212.656,210.396,212.656,120.196,203.21
	z"/>
<path d="M471.246,24.766H40.754C18.283,24.766,0,43.049,0,65.52v59.227c0,4.602,3.731,8.332,8.332,8.332s8.332-3.731,8.332-8.332
	V65.52c0-13.284,10.807-24.09,24.09-24.09h430.492c13.284,0,24.09,10.807,24.09,24.09v284.411h-52.21
	c-4.602,0-8.332,3.731-8.332,8.332s3.731,8.332,8.332,8.332h52.21v15.273c0,13.284-10.807,24.09-24.09,24.09h-155.41H196.164H40.754
	c-13.284,0-24.09-10.807-24.09-24.09v-15.273h398.688c4.602,0,8.332-3.731,8.332-8.332s-3.731-8.332-8.332-8.332H16.664V152.522
	c0-4.602-3.731-8.332-8.332-8.332S0,147.92,0,152.522v229.348c0,22.472,18.283,40.754,40.754,40.754H183.54l-20.494,47.945h-40.034
	c-4.602,0-8.332,3.731-8.332,8.332s3.731,8.332,8.332,8.332h265.975c4.602,0,8.332-3.731,8.332-8.332s-3.731-8.332-8.332-8.332
	h-40.034l-20.494-47.945h142.786c22.472,0,40.754-18.282,40.754-40.754V65.52C512,43.049,493.717,24.766,471.246,24.766z
	 M330.83,470.568H181.17l14.238-33.31h121.185L330.83,470.568z"/>
<path d="M253.972,376.221c-3.517,0.879-6.116,4.048-6.291,7.67c-0.364,7.534,9.106,11.629,14.33,6.172
	c2.663-2.782,3.078-7.177,0.913-10.385C261.01,376.772,257.341,375.379,253.972,376.221z"/>
</svg>