<?xml version="1.0" encoding="iso-8859-1"?>
<!-- Uploaded to: SVG Repo, www.svgrepo.com, Generator: SVG Repo Mixer Tools -->
<svg height="800px" width="800px" version="1.1" id="Layer_1" xmlns="http://www.w3.org/2000/svg" xmlns:xlink="http://www.w3.org/1999/xlink" 
	 viewBox="0 0 392.386 392.386" xml:space="preserve">
<g>
	<path style="fill:#FFFFFF;" d="M302.206,171.184h-8.986c2.844,2.457,5.56,5.107,8.016,7.887
		C301.689,176.485,301.947,173.899,302.206,171.184z"/>
	<path style="fill:#FFFFFF;" d="M204.59,27.669c5.301,8.21,10.02,18.036,14.158,29.22c2.392,6.659,4.655,13.834,6.594,21.398
		c6.465-0.711,12.994-1.616,19.459-2.521c8.598-1.228,17.067-2.651,25.6-4.331C253.398,51.135,230.577,35.685,204.59,27.669z"/>
	<path style="fill:#FFFFFF;" d="M261.155,95.224c-10.408,1.745-20.881,3.297-31.354,4.461c2.651,15.451,4.267,32.129,4.719,49.842
		h45.964h21.721c-1.616-21.269-8.145-41.18-18.23-58.634C276.347,92.509,268.719,93.867,261.155,95.224z"/>
	<path style="fill:#FFFFFF;" d="M137.099,46.287c-4.784,9.18-9.18,20.687-12.735,34.069c26.246,1.875,52.687,1.875,78.998,0
		c-3.556-13.317-7.952-24.824-12.735-34.069c-8.21-15.709-17.713-24.76-26.764-24.76C154.747,21.592,145.244,30.578,137.099,46.287z
		"/>
	<path style="fill:#FFFFFF;" d="M119.515,218.893c9.632-0.776,19.394-1.164,29.156-1.487c4.59-18.295,14.675-34.392,28.509-46.287
		h-62.513C115.183,188.315,116.994,204.412,119.515,218.893z"/>
	<path style="fill:#FFFFFF;" d="M208.08,101.754c-14.675,1.099-29.414,1.681-44.218,1.681s-29.543-0.646-44.218-1.681
		c-2.651,14.61-4.331,30.707-4.848,47.838h98.198C212.412,132.396,210.666,116.299,208.08,101.754z"/>
	<path style="fill:#FFFFFF;" d="M66.44,225.552c10.343-1.745,20.881-3.297,31.289-4.59c-2.651-15.451-4.267-32.129-4.719-49.842
		H47.111H25.519c1.616,21.269,8.145,41.18,18.23,58.634C51.313,228.267,58.876,226.909,66.44,225.552z"/>
	<path style="fill:#FFFFFF;" d="M122.941,293.042c-5.301-8.21-10.02-18.101-14.158-29.22c-2.392-6.723-4.655-13.899-6.594-21.463
		c-6.465,0.711-12.994,1.616-19.459,2.521c-8.598,1.228-17.067,2.651-25.471,4.331C74.262,269.511,96.953,284.962,122.941,293.042z"
		/>
	<path style="fill:#FFFFFF;" d="M82.731,75.895c6.465,0.905,12.994,1.875,19.523,2.521c1.939-7.628,4.073-14.804,6.594-21.463
		c4.073-11.184,8.792-21.01,14.158-29.22C96.953,35.749,74.262,51.2,57.26,71.628C65.664,73.244,74.198,74.667,82.731,75.895z"/>
	<path style="fill:#FFFFFF;" d="M169.357,298.99c-5.883-6.465-10.796-13.834-14.61-21.786c-5.495-11.507-8.663-24.372-8.727-37.947
		c-7.24,0.259-14.481,0.517-21.721,1.099c3.556,13.382,7.952,24.954,12.735,34.133c8.21,15.709,17.713,24.76,26.764,24.76
		C165.672,299.184,167.547,299.055,169.357,298.99z"/>
	<path style="fill:#FFFFFF;" d="M43.749,90.893c-10.214,17.519-16.614,37.43-18.23,58.634H47.24h45.964
		c0.453-17.713,2.069-34.392,4.719-49.842c-10.537-1.164-20.945-2.715-31.354-4.461C58.876,93.867,51.313,92.509,43.749,90.893z"/>
</g>
<g>
	<path style="fill:#FFC10D;" d="M302.981,238.933c0-21.204-9.762-40.016-24.954-52.493c-11.636-9.503-26.57-15.321-42.796-15.321
		c-37.43,0-67.749,30.384-67.749,67.749c0,13.899,4.267,26.893,11.442,37.624c12.154,18.166,32.84,30.125,56.307,30.125
		C272.662,306.683,302.981,276.364,302.981,238.933z"/>
	<path style="fill:#FFC10D;" d="M307.119,291.879c-0.065,0.065-0.259,0.065-0.323,0.065c-5.236,7.111-11.507,13.382-18.618,18.618
		c0,0.065,0,0.259,0,0.323l56.048,55.984c5.107,5.107,13.899,5.107,18.941,0c2.521-2.521,7.887-11.055,0-19.006L307.119,291.879z"/>
</g>
<path style="fill:#194F82;" d="M378.489,332.606l-60.509-60.509c4.073-10.279,6.4-21.463,6.4-33.228
	c0-11.96-2.392-23.337-6.659-33.745c4.267-14.545,6.465-29.608,6.465-44.8C324.185,71.952,252.234,0,163.798,0
	S3.41,71.887,3.41,160.323s71.952,160.388,160.388,160.388c10.149,0,20.17-1.034,30.061-2.844
	c12.347,6.465,26.44,10.214,41.309,10.214c11.766,0,22.949-2.327,33.228-6.465l60.509,60.444c6.659,6.659,29.802,19.459,49.519,0
	C386.117,374.626,397.689,351.806,378.489,332.606z M363.167,366.869c-5.042,5.107-13.899,5.107-18.941,0l-56.048-56.048
	c0.065,0,0-0.129,0-0.323c7.111-5.236,13.382-11.507,18.618-18.618c0.129,0,0.323,0,0.323-0.065l56.048,56.048
	C371.054,355.749,365.753,364.347,363.167,366.869z M177.244,171.184c-13.899,11.895-24.048,27.992-28.509,46.287
	c-9.762,0.259-19.394,0.711-29.156,1.487c-2.651-14.61-4.331-30.578-4.848-47.774H177.244L177.244,171.184z M114.731,149.527
	c0.517-17.131,2.263-33.228,4.848-47.838c14.675,1.099,29.414,1.681,44.218,1.681c14.804,0,29.543-0.646,44.218-1.681
	c2.65,14.61,4.331,30.707,4.848,47.838H114.731z M280.484,149.527h-45.964c-0.453-17.713-2.069-34.392-4.719-49.842
	c10.537-1.164,20.945-2.715,31.354-4.461c7.628-1.293,15.192-2.715,22.691-4.331c10.214,17.519,16.614,37.43,18.23,58.634H280.484z
	 M302.206,171.184c-0.259,2.65-0.646,5.236-0.905,7.887c-2.521-2.78-5.172-5.43-8.016-7.887H302.206z M244.8,75.83
	c-6.465,0.905-12.994,1.875-19.459,2.521c-1.939-7.564-4.073-14.739-6.594-21.398c-4.073-11.184-8.792-21.01-14.158-29.22
	c25.988,8.016,48.679,23.402,65.745,43.83C261.866,73.18,253.398,74.602,244.8,75.83z M190.561,46.287
	c4.784,9.18,9.18,20.687,12.735,34.069c-26.246,1.875-52.687,1.875-78.998,0c3.556-13.382,7.952-24.889,12.735-34.069
	c8.21-15.709,17.713-24.76,26.764-24.76C172.848,21.592,182.351,30.578,190.561,46.287z M123.006,27.669
	c-5.301,8.21-10.149,18.036-14.158,29.22c-2.457,6.723-4.655,13.899-6.594,21.463c-6.594-0.711-13.059-1.616-19.523-2.521
	c-8.598-1.228-17.067-2.651-25.6-4.331C74.262,51.135,96.953,35.685,123.006,27.669z M97.794,99.685
	c-2.651,15.451-4.267,32.129-4.719,49.842H47.111H25.519c1.616-21.269,8.145-41.18,18.23-58.634
	c7.564,1.616,15.127,3.038,22.691,4.331C76.848,96.97,87.321,98.521,97.794,99.685z M47.111,171.184H93.01
	c0.453,17.713,2.069,34.392,4.719,49.842c-10.537,1.228-20.945,2.715-31.289,4.59c-7.564,1.293-15.192,2.715-22.691,4.331
	c-10.214-17.584-16.614-37.43-18.23-58.699h21.657v-0.065H47.111z M82.731,244.881c6.465-0.905,12.994-1.875,19.459-2.521
	c1.939,7.628,4.073,14.869,6.594,21.463c4.073,11.184,8.792,21.01,14.158,29.22c-25.988-8.016-48.679-23.467-65.681-43.895
	C65.664,247.531,74.198,246.109,82.731,244.881z M137.099,274.489c-4.784-9.244-9.18-20.816-12.735-34.133
	c7.24-0.517,14.481-0.84,21.721-1.099c0.065,13.576,3.232,26.44,8.727,37.947c3.814,7.952,8.727,15.321,14.61,21.786
	c-1.875,0.065-3.685,0.259-5.56,0.259C154.747,299.184,145.244,290.198,137.099,274.489z M178.86,276.558
	c-7.176-10.731-11.442-23.725-11.442-37.624c0-37.43,30.384-67.749,67.749-67.749c16.226,0,31.16,5.689,42.796,15.321
	c15.192,12.412,24.954,31.289,24.954,52.493c0,37.43-30.384,67.749-67.75,67.749C211.701,306.683,191.014,294.723,178.86,276.558z"
	/>
<g>
	<path style="fill:#56ACE0;" d="M229.802,99.685c2.651,15.451,4.267,32.129,4.719,49.842h45.964
		c-1.875-20.04-8.727-38.529-19.329-54.303C250.747,96.97,240.339,98.521,229.802,99.685z"/>
	<path style="fill:#56ACE0;" d="M137.099,46.287c-4.784,9.18-9.18,20.687-12.735,34.069c26.246,1.875,52.687,1.875,78.998,0
		c-3.556-13.317-7.952-24.824-12.735-34.069c-8.598-2.004-17.519-3.103-26.764-3.103S145.632,44.283,137.099,46.287z"/>
	<path style="fill:#56ACE0;" d="M102.19,242.36c-6.465,0.711-12.994,1.616-19.459,2.521c7.758,7.434,16.485,13.834,26.053,18.941
		C106.327,257.099,104.129,249.923,102.19,242.36z"/>
	<path style="fill:#56ACE0;" d="M97.729,221.026c-2.651-15.451-4.267-32.129-4.719-49.842H47.111
		c1.875,20.04,8.727,38.529,19.329,54.303C76.848,223.806,87.321,222.255,97.729,221.026z"/>
	<path style="fill:#56ACE0;" d="M93.074,149.527c0.453-17.713,2.069-34.392,4.719-49.842c-10.537-1.164-20.945-2.715-31.354-4.461
		c-10.667,15.838-17.455,34.392-19.329,54.303H93.074z"/>
	<path style="fill:#56ACE0;" d="M102.319,78.416c1.939-7.628,4.073-14.804,6.594-21.463c-9.568,5.107-18.295,11.507-26.117,18.941
		C89.26,76.8,95.725,77.77,102.319,78.416z"/>
	<path style="fill:#56ACE0;" d="M225.341,78.352c6.465-0.711,12.994-1.616,19.459-2.521c-7.758-7.434-16.485-13.77-26.053-18.877
		C221.204,63.612,223.402,70.788,225.341,78.352z"/>
	<path style="fill:#56ACE0;" d="M208.08,101.754c-14.675,1.099-29.414,1.681-44.218,1.681s-29.543-0.646-44.218-1.681
		c-2.651,14.61-4.331,30.707-4.848,47.838h98.198C212.412,132.396,210.666,116.299,208.08,101.754z"/>
	<path style="fill:#56ACE0;" d="M177.244,171.184h-62.513c0.517,17.131,2.263,33.228,4.848,47.774
		c9.632-0.776,19.394-1.164,29.156-1.487C153.196,199.24,163.345,183.079,177.244,171.184z"/>
	<path style="fill:#56ACE0;" d="M146.02,239.192c-7.24,0.259-14.481,0.517-21.721,1.099c3.556,13.382,7.952,24.954,12.735,34.133
		c5.689,1.293,11.636,2.263,17.713,2.715C149.188,265.697,146.02,252.832,146.02,239.192z"/>
</g>
</svg>